<mxfile host="65bd71144e">
    <diagram id="ikUlHtttG-ncjOK1HMVr" name="第 1 页">
        <mxGraphModel dx="735" dy="545" grid="1" gridSize="10" guides="1" tooltips="1" connect="1" arrows="1" fold="1" page="1" pageScale="1" pageWidth="827" pageHeight="1169" math="1" shadow="0">
            <root>
                <mxCell id="0"/>
                <mxCell id="1" parent="0"/>
                <mxCell id="2" value="&lt;font style=&quot;font-size: 30px&quot;&gt;x&lt;/font&gt;" style="rounded=1;whiteSpace=wrap;html=1;strokeWidth=2;" parent="1" vertex="1">
                    <mxGeometry x="39.38" y="280.25" width="81.25" height="37.5" as="geometry"/>
                </mxCell>
                <mxCell id="53" style="edgeStyle=none;html=1;exitX=1;exitY=0.5;exitDx=0;exitDy=0;entryX=0.5;entryY=1;entryDx=0;entryDy=0;fontSize=18;" parent="1" source="3" target="5" edge="1">
                    <mxGeometry relative="1" as="geometry"/>
                </mxCell>
                <mxCell id="3" value="&lt;font style=&quot;font-size: 18px&quot;&gt;x&lt;sub&gt;1&lt;/sub&gt;&lt;/font&gt;" style="rounded=1;whiteSpace=wrap;html=1;strokeWidth=2;fontSize=12;" parent="1" vertex="1">
                    <mxGeometry x="140" y="135" width="80" height="40" as="geometry"/>
                </mxCell>
                <mxCell id="61" style="edgeStyle=none;html=1;exitX=1;exitY=0.5;exitDx=0;exitDy=0;entryX=0.5;entryY=1;entryDx=0;entryDy=0;fontSize=18;" parent="1" source="91" target="6" edge="1">
                    <mxGeometry relative="1" as="geometry">
                        <mxPoint x="220" y="436.25" as="sourcePoint"/>
                    </mxGeometry>
                </mxCell>
                <mxCell id="54" style="edgeStyle=none;html=1;exitX=0.5;exitY=0;exitDx=0;exitDy=0;entryX=0.5;entryY=1;entryDx=0;entryDy=0;fontSize=18;" parent="1" source="5" target="9" edge="1">
                    <mxGeometry relative="1" as="geometry"/>
                </mxCell>
                <mxCell id="57" style="edgeStyle=none;html=1;exitX=0.5;exitY=0;exitDx=0;exitDy=0;entryX=0.5;entryY=1;entryDx=0;entryDy=0;fontSize=18;" parent="1" source="6" target="10" edge="1">
                    <mxGeometry relative="1" as="geometry"/>
                </mxCell>
                <mxCell id="63" style="edgeStyle=none;html=1;exitX=0.5;exitY=1;exitDx=0;exitDy=0;fontSize=18;" parent="1" source="7" target="48" edge="1">
                    <mxGeometry relative="1" as="geometry"/>
                </mxCell>
                <mxCell id="65" style="edgeStyle=none;html=1;exitX=0.5;exitY=1;exitDx=0;exitDy=0;entryX=0;entryY=0.5;entryDx=0;entryDy=0;fontSize=18;" parent="1" source="8" target="49" edge="1">
                    <mxGeometry relative="1" as="geometry"/>
                </mxCell>
                <mxCell id="55" style="edgeStyle=none;html=1;exitX=0.5;exitY=0;exitDx=0;exitDy=0;entryX=0.5;entryY=0;entryDx=0;entryDy=0;fontSize=18;" parent="1" source="9" target="7" edge="1">
                    <mxGeometry relative="1" as="geometry"/>
                </mxCell>
                <mxCell id="56" style="edgeStyle=none;html=1;exitX=0.5;exitY=0;exitDx=0;exitDy=0;entryX=0.5;entryY=0;entryDx=0;entryDy=0;fontSize=18;" parent="1" source="10" target="8" edge="1">
                    <mxGeometry relative="1" as="geometry"/>
                </mxCell>
                <mxCell id="17" value="" style="endArrow=none;dashed=1;html=1;dashPattern=1 3;strokeWidth=2;exitX=0;exitY=0.5;exitDx=0;exitDy=0;" parent="1" source="6" target="5" edge="1">
                    <mxGeometry width="50" height="50" relative="1" as="geometry">
                        <mxPoint x="260" y="380" as="sourcePoint"/>
                        <mxPoint x="260" y="250" as="targetPoint"/>
                    </mxGeometry>
                </mxCell>
                <mxCell id="93" value="Share" style="edgeLabel;html=1;align=center;verticalAlign=middle;resizable=0;points=[];fontSize=18;" parent="17" vertex="1" connectable="0">
                    <mxGeometry x="0.1784" y="-3" relative="1" as="geometry">
                        <mxPoint x="-3" y="24" as="offset"/>
                    </mxGeometry>
                </mxCell>
                <mxCell id="18" value="" style="endArrow=none;dashed=1;html=1;dashPattern=1 3;strokeWidth=2;entryX=0;entryY=0.5;entryDx=0;entryDy=0;exitX=1;exitY=0.5;exitDx=0;exitDy=0;" parent="1" source="8" target="7" edge="1">
                    <mxGeometry width="50" height="50" relative="1" as="geometry">
                        <mxPoint x="404.76" y="380" as="sourcePoint"/>
                        <mxPoint x="404.76" y="250" as="targetPoint"/>
                    </mxGeometry>
                </mxCell>
                <mxCell id="96" value="Share" style="edgeLabel;html=1;align=center;verticalAlign=middle;resizable=0;points=[];fontSize=18;" parent="18" vertex="1" connectable="0">
                    <mxGeometry x="-0.0604" y="-1" relative="1" as="geometry">
                        <mxPoint x="-4" y="-3" as="offset"/>
                    </mxGeometry>
                </mxCell>
                <mxCell id="30" value="" style="curved=1;endArrow=classic;html=1;exitX=0;exitY=0.5;exitDx=0;exitDy=0;" parent="1" source="10" target="21" edge="1">
                    <mxGeometry width="50" height="50" relative="1" as="geometry">
                        <mxPoint x="350" y="364" as="sourcePoint"/>
                        <mxPoint x="477.5" y="390" as="targetPoint"/>
                        <Array as="points">
                            <mxPoint x="331" y="350"/>
                        </Array>
                    </mxGeometry>
                </mxCell>
                <mxCell id="32" value="" style="curved=1;endArrow=classic;html=1;entryX=0.5;entryY=1;entryDx=0;entryDy=0;exitX=1;exitY=0.5;exitDx=0;exitDy=0;" parent="1" source="9" target="22" edge="1">
                    <mxGeometry width="50" height="50" relative="1" as="geometry">
                        <mxPoint x="330" y="290" as="sourcePoint"/>
                        <mxPoint x="380" y="240" as="targetPoint"/>
                        <Array as="points">
                            <mxPoint x="330" y="240"/>
                        </Array>
                    </mxGeometry>
                </mxCell>
                <mxCell id="64" style="edgeStyle=none;html=1;exitX=0;exitY=0.5;exitDx=0;exitDy=0;entryX=1;entryY=0.5;entryDx=0;entryDy=0;fontSize=18;" parent="1" source="89" target="48" edge="1">
                    <mxGeometry relative="1" as="geometry">
                        <mxPoint x="620" y="155" as="sourcePoint"/>
                    </mxGeometry>
                </mxCell>
                <mxCell id="66" style="edgeStyle=none;html=1;fontSize=18;entryX=1;entryY=0.5;entryDx=0;entryDy=0;exitX=0;exitY=0.5;exitDx=0;exitDy=0;" parent="1" source="90" target="49" edge="1">
                    <mxGeometry relative="1" as="geometry">
                        <mxPoint x="600" y="430" as="sourcePoint"/>
                    </mxGeometry>
                </mxCell>
                <mxCell id="40" value="" style="curved=1;endArrow=classic;html=1;entryX=0;entryY=0.5;entryDx=0;entryDy=0;exitX=0.5;exitY=1;exitDx=0;exitDy=0;" parent="1" source="2" target="91" edge="1">
                    <mxGeometry width="50" height="50" relative="1" as="geometry">
                        <mxPoint x="50" y="430" as="sourcePoint"/>
                        <mxPoint x="140" y="436.25" as="targetPoint"/>
                        <Array as="points">
                            <mxPoint x="100" y="430"/>
                        </Array>
                    </mxGeometry>
                </mxCell>
                <mxCell id="41" value="" style="curved=1;endArrow=classic;html=1;entryX=0;entryY=0.5;entryDx=0;entryDy=0;exitX=0.5;exitY=0;exitDx=0;exitDy=0;" parent="1" source="2" target="3" edge="1">
                    <mxGeometry width="50" height="50" relative="1" as="geometry">
                        <mxPoint x="90" y="260" as="sourcePoint"/>
                        <mxPoint x="140" y="210" as="targetPoint"/>
                        <Array as="points">
                            <mxPoint x="100" y="160"/>
                        </Array>
                    </mxGeometry>
                </mxCell>
                <mxCell id="42" value="" style="endArrow=none;dashed=1;html=1;exitX=0;exitY=0.5;exitDx=0;exitDy=0;" parent="1" source="21" target="22" edge="1">
                    <mxGeometry width="50" height="50" relative="1" as="geometry">
                        <mxPoint x="500" y="340" as="sourcePoint"/>
                        <mxPoint x="550" y="290" as="targetPoint"/>
                    </mxGeometry>
                </mxCell>
                <mxCell id="97" value="Share" style="edgeLabel;html=1;align=center;verticalAlign=middle;resizable=0;points=[];fontSize=18;" parent="42" vertex="1" connectable="0">
                    <mxGeometry x="-0.2077" y="-2" relative="1" as="geometry">
                        <mxPoint x="-2" y="-4" as="offset"/>
                    </mxGeometry>
                </mxCell>
                <mxCell id="47" value="&lt;span style=&quot;font-size: 20px;&quot;&gt;L&lt;sub style=&quot;font-size: 20px;&quot;&gt;sim&lt;/sub&gt;&lt;/span&gt;" style="text;html=1;strokeColor=none;fillColor=none;align=center;verticalAlign=middle;whiteSpace=wrap;rounded=0;fontSize=20;fontStyle=1" parent="1" vertex="1">
                    <mxGeometry x="580" y="287.75" width="60" height="30" as="geometry"/>
                </mxCell>
                <mxCell id="48" value="&lt;font style=&quot;font-size: 20px;&quot;&gt;L&lt;sub style=&quot;font-size: 20px;&quot;&gt;rc1&lt;/sub&gt;&lt;/font&gt;" style="text;html=1;strokeColor=none;fillColor=none;align=center;verticalAlign=middle;whiteSpace=wrap;rounded=0;fontSize=20;fontStyle=1" parent="1" vertex="1">
                    <mxGeometry x="490" y="140" width="60" height="30" as="geometry"/>
                </mxCell>
                <mxCell id="49" value="&lt;font style=&quot;font-size: 20px;&quot;&gt;L&lt;sub style=&quot;font-size: 20px;&quot;&gt;rc2&lt;/sub&gt;&lt;/font&gt;" style="text;html=1;strokeColor=none;fillColor=none;align=center;verticalAlign=middle;whiteSpace=wrap;rounded=0;fontSize=20;fontStyle=1" parent="1" vertex="1">
                    <mxGeometry x="490" y="421.25" width="60" height="30" as="geometry"/>
                </mxCell>
                <mxCell id="59" value="" style="curved=1;endArrow=classic;html=1;fontSize=18;exitX=0.5;exitY=0;exitDx=0;exitDy=0;entryX=0.5;entryY=0;entryDx=0;entryDy=0;" parent="1" source="22" target="47" edge="1">
                    <mxGeometry width="50" height="50" relative="1" as="geometry">
                        <mxPoint x="650" y="210" as="sourcePoint"/>
                        <mxPoint x="700" y="160" as="targetPoint"/>
                        <Array as="points">
                            <mxPoint x="610" y="235"/>
                        </Array>
                    </mxGeometry>
                </mxCell>
                <mxCell id="60" value="" style="curved=1;endArrow=classic;html=1;fontSize=18;entryX=0.5;entryY=1;entryDx=0;entryDy=0;exitX=0.5;exitY=0;exitDx=0;exitDy=0;" parent="1" source="21" target="47" edge="1">
                    <mxGeometry width="50" height="50" relative="1" as="geometry">
                        <mxPoint x="570" y="450" as="sourcePoint"/>
                        <mxPoint x="620" y="400" as="targetPoint"/>
                        <Array as="points">
                            <mxPoint x="600" y="364"/>
                        </Array>
                    </mxGeometry>
                </mxCell>
                <mxCell id="77" value="Aug1(·)" style="text;html=1;strokeColor=none;fillColor=none;align=center;verticalAlign=middle;whiteSpace=wrap;rounded=0;fontSize=18;rotation=-75;" parent="1" vertex="1">
                    <mxGeometry x="10" y="190" width="140" height="30" as="geometry"/>
                </mxCell>
                <mxCell id="78" value="Aug2(·)" style="text;html=1;strokeColor=none;fillColor=none;align=center;verticalAlign=middle;whiteSpace=wrap;rounded=0;fontSize=18;rotation=-115;" parent="1" vertex="1">
                    <mxGeometry x="10" y="371.25" width="140" height="30" as="geometry"/>
                </mxCell>
                <mxCell id="80" value="" style="group" parent="1" vertex="1" connectable="0">
                    <mxGeometry x="465" y="200.25" width="60" height="70" as="geometry"/>
                </mxCell>
                <mxCell id="22" value="" style="shape=trapezoid;perimeter=trapezoidPerimeter;whiteSpace=wrap;html=1;fixedSize=1;rotation=90;strokeWidth=2;" parent="80" vertex="1">
                    <mxGeometry x="-5" y="15" width="70" height="40" as="geometry"/>
                </mxCell>
                <mxCell id="73" value="&lt;span style=&quot;font-size: 18px&quot;&gt;P(·)&lt;/span&gt;" style="text;html=1;strokeColor=none;fillColor=none;align=center;verticalAlign=middle;whiteSpace=wrap;rounded=0;" parent="80" vertex="1">
                    <mxGeometry y="20" width="60" height="30" as="geometry"/>
                </mxCell>
                <mxCell id="81" value="" style="group" parent="1" vertex="1" connectable="0">
                    <mxGeometry x="375" y="120" width="60" height="70" as="geometry"/>
                </mxCell>
                <mxCell id="7" value="" style="shape=trapezoid;perimeter=trapezoidPerimeter;whiteSpace=wrap;html=1;fixedSize=1;rotation=-90;strokeWidth=2;" parent="81" vertex="1">
                    <mxGeometry x="-5" y="15" width="70" height="40" as="geometry"/>
                </mxCell>
                <mxCell id="71" value="&lt;span style=&quot;font-size: 18px&quot;&gt;D(·)&lt;/span&gt;" style="text;html=1;strokeColor=none;fillColor=none;align=center;verticalAlign=middle;whiteSpace=wrap;rounded=0;" parent="81" vertex="1">
                    <mxGeometry y="20" width="60" height="30" as="geometry"/>
                </mxCell>
                <mxCell id="82" value="" style="group" parent="1" vertex="1" connectable="0">
                    <mxGeometry x="300.5" y="109.75" width="60" height="90.5" as="geometry"/>
                </mxCell>
                <mxCell id="9" value="" style="rounded=0;whiteSpace=wrap;html=1;rotation=90;strokeWidth=2;" parent="82" vertex="1">
                    <mxGeometry x="-16" y="30.25" width="90.5" height="30" as="geometry"/>
                </mxCell>
                <mxCell id="69" value="&lt;font style=&quot;font-size: 18px&quot;&gt;S&lt;sub&gt;1&lt;/sub&gt;&lt;/font&gt;" style="text;html=1;strokeColor=none;fillColor=none;align=center;verticalAlign=middle;whiteSpace=wrap;rounded=0;" parent="82" vertex="1">
                    <mxGeometry y="30.25" width="60" height="30" as="geometry"/>
                </mxCell>
                <mxCell id="83" value="" style="group" parent="1" vertex="1" connectable="0">
                    <mxGeometry x="240" y="120" width="60" height="70" as="geometry"/>
                </mxCell>
                <mxCell id="5" value="" style="shape=trapezoid;perimeter=trapezoidPerimeter;whiteSpace=wrap;html=1;fixedSize=1;rotation=90;strokeWidth=2;" parent="83" vertex="1">
                    <mxGeometry x="-5" y="15" width="70" height="40" as="geometry"/>
                </mxCell>
                <mxCell id="67" value="&lt;font style=&quot;font-size: 18px&quot;&gt;E(·)&lt;/font&gt;" style="text;html=1;strokeColor=none;fillColor=none;align=center;verticalAlign=middle;whiteSpace=wrap;rounded=0;" parent="83" vertex="1">
                    <mxGeometry y="20" width="60" height="30" as="geometry"/>
                </mxCell>
                <mxCell id="84" value="" style="group;strokeWidth=2;" parent="1" vertex="1" connectable="0">
                    <mxGeometry x="240" y="401.25" width="60" height="70" as="geometry"/>
                </mxCell>
                <mxCell id="6" value="" style="shape=trapezoid;perimeter=trapezoidPerimeter;whiteSpace=wrap;html=1;fixedSize=1;rotation=90;strokeWidth=2;" parent="84" vertex="1">
                    <mxGeometry x="-5" y="15" width="70" height="40" as="geometry"/>
                </mxCell>
                <mxCell id="68" value="&lt;font style=&quot;font-size: 18px&quot;&gt;E(·)&lt;/font&gt;" style="text;html=1;strokeColor=none;fillColor=none;align=center;verticalAlign=middle;whiteSpace=wrap;rounded=0;" parent="84" vertex="1">
                    <mxGeometry y="20" width="60" height="30" as="geometry"/>
                </mxCell>
                <mxCell id="85" value="" style="group;strokeWidth=2;" parent="1" vertex="1" connectable="0">
                    <mxGeometry x="300.5" y="391.5" width="60" height="89.5" as="geometry"/>
                </mxCell>
                <mxCell id="10" value="" style="rounded=0;whiteSpace=wrap;html=1;rotation=90;strokeWidth=2;" parent="85" vertex="1">
                    <mxGeometry x="-14.75" y="29.75" width="89.5" height="30" as="geometry"/>
                </mxCell>
                <mxCell id="70" value="&lt;span style=&quot;font-size: 18px&quot;&gt;S&lt;/span&gt;&lt;span style=&quot;font-size: 10px&quot;&gt;2&lt;/span&gt;" style="text;html=1;strokeColor=none;fillColor=none;align=center;verticalAlign=middle;whiteSpace=wrap;rounded=0;" parent="85" vertex="1">
                    <mxGeometry y="29.75" width="60" height="30" as="geometry"/>
                </mxCell>
                <mxCell id="86" value="" style="group;strokeWidth=2;" parent="1" vertex="1" connectable="0">
                    <mxGeometry x="375" y="401.25" width="60" height="70" as="geometry"/>
                </mxCell>
                <mxCell id="8" value="" style="shape=trapezoid;perimeter=trapezoidPerimeter;whiteSpace=wrap;html=1;fixedSize=1;rotation=-90;strokeWidth=2;" parent="86" vertex="1">
                    <mxGeometry x="-5" y="15" width="70" height="40" as="geometry"/>
                </mxCell>
                <mxCell id="72" value="&lt;span style=&quot;font-size: 18px&quot;&gt;D(·)&lt;/span&gt;" style="text;html=1;strokeColor=none;fillColor=none;align=center;verticalAlign=middle;whiteSpace=wrap;rounded=0;" parent="86" vertex="1">
                    <mxGeometry y="20" width="60" height="30" as="geometry"/>
                </mxCell>
                <mxCell id="87" value="" style="group" parent="1" vertex="1" connectable="0">
                    <mxGeometry x="465" y="321.5" width="60" height="70" as="geometry"/>
                </mxCell>
                <mxCell id="92" style="edgeStyle=none;html=1;exitX=1;exitY=0.25;exitDx=0;exitDy=0;fontSize=18;" parent="87" source="21" target="74" edge="1">
                    <mxGeometry relative="1" as="geometry"/>
                </mxCell>
                <mxCell id="21" value="" style="shape=trapezoid;perimeter=trapezoidPerimeter;whiteSpace=wrap;html=1;fixedSize=1;rotation=90;strokeWidth=2;" parent="87" vertex="1">
                    <mxGeometry x="-5" y="15" width="70" height="40" as="geometry"/>
                </mxCell>
                <mxCell id="74" value="&lt;span style=&quot;font-size: 18px&quot;&gt;P(·)&lt;/span&gt;" style="text;html=1;strokeColor=none;fillColor=none;align=center;verticalAlign=middle;whiteSpace=wrap;rounded=0;" parent="87" vertex="1">
                    <mxGeometry y="20" width="60" height="30" as="geometry"/>
                </mxCell>
                <mxCell id="89" value="&lt;font style=&quot;font-size: 18px&quot;&gt;x&lt;sub&gt;1&lt;/sub&gt;&lt;/font&gt;" style="rounded=1;whiteSpace=wrap;html=1;strokeWidth=2;" parent="1" vertex="1">
                    <mxGeometry x="590" y="135" width="80" height="40" as="geometry"/>
                </mxCell>
                <mxCell id="90" value="&lt;font style=&quot;font-size: 18px&quot;&gt;x&lt;sub&gt;2&lt;/sub&gt;&lt;/font&gt;" style="rounded=1;whiteSpace=wrap;html=1;strokeWidth=2;" parent="1" vertex="1">
                    <mxGeometry x="590" y="416.25" width="80" height="40" as="geometry"/>
                </mxCell>
                <mxCell id="91" value="&lt;font style=&quot;font-size: 18px&quot;&gt;x&lt;sub&gt;2&lt;/sub&gt;&lt;/font&gt;" style="rounded=1;whiteSpace=wrap;html=1;strokeWidth=2;" parent="1" vertex="1">
                    <mxGeometry x="140" y="416.25" width="80" height="40" as="geometry"/>
                </mxCell>
            </root>
        </mxGraphModel>
    </diagram>
    <diagram id="WuAAhqT65BnFUfiGGrZC" name="第 2 页">
        <mxGraphModel dx="1893" dy="790" grid="1" gridSize="10" guides="1" tooltips="1" connect="1" arrows="1" fold="1" page="1" pageScale="1" pageWidth="827" pageHeight="1169" math="0" shadow="0">
            <root>
                <mxCell id="zm2U4cjtXxkcTZJ3gDTT-0"/>
                <mxCell id="zm2U4cjtXxkcTZJ3gDTT-1" parent="zm2U4cjtXxkcTZJ3gDTT-0"/>
                <mxCell id="zm2U4cjtXxkcTZJ3gDTT-2" value="" style="edgeStyle=none;html=1;fontColor=default;strokeWidth=2;" edge="1" parent="zm2U4cjtXxkcTZJ3gDTT-1" source="zm2U4cjtXxkcTZJ3gDTT-4" target="zm2U4cjtXxkcTZJ3gDTT-7">
                    <mxGeometry relative="1" as="geometry"/>
                </mxCell>
                <mxCell id="zm2U4cjtXxkcTZJ3gDTT-3" value="BN,ReLU,Conv(k=3)" style="edgeLabel;html=1;align=center;verticalAlign=middle;resizable=0;points=[];fontColor=default;" vertex="1" connectable="0" parent="zm2U4cjtXxkcTZJ3gDTT-2">
                    <mxGeometry x="0.363" relative="1" as="geometry">
                        <mxPoint as="offset"/>
                    </mxGeometry>
                </mxCell>
                <mxCell id="zm2U4cjtXxkcTZJ3gDTT-4" value="C*W*1" style="shape=cube;whiteSpace=wrap;html=1;boundedLbl=1;backgroundOutline=1;darkOpacity=0.05;darkOpacity2=0.1;rotation=0;fontColor=default;direction=south;strokeWidth=2;fontSize=12;" vertex="1" parent="zm2U4cjtXxkcTZJ3gDTT-1">
                    <mxGeometry x="-665" y="130" width="190" height="60" as="geometry"/>
                </mxCell>
                <mxCell id="zm2U4cjtXxkcTZJ3gDTT-5" value="" style="edgeStyle=none;html=1;fontColor=default;strokeWidth=2;" edge="1" parent="zm2U4cjtXxkcTZJ3gDTT-1" source="zm2U4cjtXxkcTZJ3gDTT-7" target="zm2U4cjtXxkcTZJ3gDTT-9">
                    <mxGeometry relative="1" as="geometry"/>
                </mxCell>
                <mxCell id="zm2U4cjtXxkcTZJ3gDTT-6" value="&lt;span style=&quot;color: rgba(0 , 0 , 0 , 0) ; font-family: monospace ; font-size: 0px&quot;&gt;%3CmxGraphModel%3E%3Croot%3E%3CmxCell%20id%3D%220%22%2F%3E%3CmxCell%20id%3D%221%22%20parent%3D%220%22%2F%3E%3CmxCell%20id%3D%222%22%20value%3D%22BN%2CReLU%2CConv(K%3DC)%22%20style%3D%22edgeLabel%3Bhtml%3D1%3Balign%3Dcenter%3BverticalAlign%3Dmiddle%3Bresizable%3D0%3Bpoints%3D%5B%5D%3BfontColor%3Ddefault%3B%22%20vertex%3D%221%22%20connectable%3D%220%22%20parent%3D%221%22%3E%3CmxGeometry%20x%3D%22175%22%20y%3D%22311.66666666666663%22%20as%3D%22geometry%22%2F%3E%3C%2FmxCell%3E%3C%2Froot%3E%3C%2FmxGraphModel%3E&lt;/span&gt;" style="edgeLabel;html=1;align=center;verticalAlign=middle;resizable=0;points=[];fontColor=default;" vertex="1" connectable="0" parent="zm2U4cjtXxkcTZJ3gDTT-5">
                    <mxGeometry x="0.437" relative="1" as="geometry">
                        <mxPoint as="offset"/>
                    </mxGeometry>
                </mxCell>
                <mxCell id="zm2U4cjtXxkcTZJ3gDTT-7" value="C*W*1" style="shape=cube;whiteSpace=wrap;html=1;boundedLbl=1;backgroundOutline=1;darkOpacity=0.05;darkOpacity2=0.1;fontColor=default;direction=south;strokeWidth=2;" vertex="1" parent="zm2U4cjtXxkcTZJ3gDTT-1">
                    <mxGeometry x="-665" y="280" width="190" height="60" as="geometry"/>
                </mxCell>
                <mxCell id="zm2U4cjtXxkcTZJ3gDTT-8" value="" style="edgeStyle=none;html=1;fontColor=default;strokeWidth=2;" edge="1" parent="zm2U4cjtXxkcTZJ3gDTT-1" source="zm2U4cjtXxkcTZJ3gDTT-9" target="zm2U4cjtXxkcTZJ3gDTT-14">
                    <mxGeometry relative="1" as="geometry"/>
                </mxCell>
                <mxCell id="zm2U4cjtXxkcTZJ3gDTT-9" value="C*W*1" style="shape=cube;whiteSpace=wrap;html=1;boundedLbl=1;backgroundOutline=1;darkOpacity=0.05;darkOpacity2=0.1;fontColor=default;direction=south;strokeWidth=2;" vertex="1" parent="zm2U4cjtXxkcTZJ3gDTT-1">
                    <mxGeometry x="-665" y="430" width="190" height="60" as="geometry"/>
                </mxCell>
                <mxCell id="zm2U4cjtXxkcTZJ3gDTT-10" value="C*W*1" style="shape=cube;whiteSpace=wrap;html=1;boundedLbl=1;backgroundOutline=1;darkOpacity=0.05;darkOpacity2=0.1;fontColor=default;direction=south;strokeWidth=2;" vertex="1" parent="zm2U4cjtXxkcTZJ3gDTT-1">
                    <mxGeometry x="-665" y="570" width="190" height="60" as="geometry"/>
                </mxCell>
                <mxCell id="zm2U4cjtXxkcTZJ3gDTT-11" value="BN,ReLU,Conv(k=3)" style="edgeLabel;html=1;align=center;verticalAlign=middle;resizable=0;points=[];fontColor=default;" vertex="1" connectable="0" parent="zm2U4cjtXxkcTZJ3gDTT-1">
                    <mxGeometry x="-570" y="399.99666666666667" as="geometry"/>
                </mxCell>
                <mxCell id="zm2U4cjtXxkcTZJ3gDTT-12" value="" style="edgeStyle=elbowEdgeStyle;elbow=horizontal;endArrow=classic;html=1;fontColor=default;entryX=0;entryY=0.5;entryDx=0;entryDy=0;strokeWidth=2;" edge="1" parent="zm2U4cjtXxkcTZJ3gDTT-1" target="zm2U4cjtXxkcTZJ3gDTT-14">
                    <mxGeometry width="50" height="50" relative="1" as="geometry">
                        <mxPoint x="-570.0000000000002" y="220" as="sourcePoint"/>
                        <mxPoint x="-615" y="530" as="targetPoint"/>
                        <Array as="points">
                            <mxPoint x="-700" y="310"/>
                        </Array>
                    </mxGeometry>
                </mxCell>
                <mxCell id="zm2U4cjtXxkcTZJ3gDTT-13" value="" style="edgeStyle=none;html=1;fontColor=default;strokeWidth=2;" edge="1" parent="zm2U4cjtXxkcTZJ3gDTT-1" source="zm2U4cjtXxkcTZJ3gDTT-14" target="zm2U4cjtXxkcTZJ3gDTT-10">
                    <mxGeometry relative="1" as="geometry"/>
                </mxCell>
                <mxCell id="zm2U4cjtXxkcTZJ3gDTT-14" value="" style="shape=orEllipse;perimeter=ellipsePerimeter;whiteSpace=wrap;html=1;backgroundOutline=1;fontColor=default;" vertex="1" parent="zm2U4cjtXxkcTZJ3gDTT-1">
                    <mxGeometry x="-580" y="525" width="20" height="20" as="geometry"/>
                </mxCell>
                <mxCell id="zm2U4cjtXxkcTZJ3gDTT-15" value="" style="edgeStyle=elbowEdgeStyle;elbow=horizontal;endArrow=classic;html=1;fontColor=default;entryX=1;entryY=0.5;entryDx=0;entryDy=0;strokeWidth=2;" edge="1" parent="zm2U4cjtXxkcTZJ3gDTT-1" target="zm2U4cjtXxkcTZJ3gDTT-14">
                    <mxGeometry width="50" height="50" relative="1" as="geometry">
                        <mxPoint x="-570.0000000000002" y="360" as="sourcePoint"/>
                        <mxPoint x="-300" y="535" as="targetPoint"/>
                        <Array as="points">
                            <mxPoint x="-420" y="310"/>
                        </Array>
                    </mxGeometry>
                </mxCell>
                <mxCell id="zm2U4cjtXxkcTZJ3gDTT-16" value="" style="edgeStyle=none;html=1;fontColor=default;strokeWidth=2;" edge="1" parent="zm2U4cjtXxkcTZJ3gDTT-1" source="zm2U4cjtXxkcTZJ3gDTT-18" target="zm2U4cjtXxkcTZJ3gDTT-21">
                    <mxGeometry relative="1" as="geometry"/>
                </mxCell>
                <mxCell id="zm2U4cjtXxkcTZJ3gDTT-17" value="BN,ReLU,Conv(k=3)" style="edgeLabel;html=1;align=center;verticalAlign=middle;resizable=0;points=[];fontColor=default;" vertex="1" connectable="0" parent="zm2U4cjtXxkcTZJ3gDTT-16">
                    <mxGeometry x="0.363" relative="1" as="geometry">
                        <mxPoint as="offset"/>
                    </mxGeometry>
                </mxCell>
                <mxCell id="zm2U4cjtXxkcTZJ3gDTT-18" value="C*W*1" style="shape=cube;whiteSpace=wrap;html=1;boundedLbl=1;backgroundOutline=1;darkOpacity=0.05;darkOpacity2=0.1;rotation=0;fontColor=default;direction=south;strokeWidth=2;" vertex="1" parent="zm2U4cjtXxkcTZJ3gDTT-1">
                    <mxGeometry x="-252" y="130" width="190" height="60" as="geometry"/>
                </mxCell>
                <mxCell id="zm2U4cjtXxkcTZJ3gDTT-19" value="" style="edgeStyle=none;html=1;fontColor=default;strokeWidth=2;" edge="1" parent="zm2U4cjtXxkcTZJ3gDTT-1" source="zm2U4cjtXxkcTZJ3gDTT-21">
                    <mxGeometry relative="1" as="geometry">
                        <mxPoint x="-157" y="430.0000000000002" as="targetPoint"/>
                    </mxGeometry>
                </mxCell>
                <mxCell id="zm2U4cjtXxkcTZJ3gDTT-20" value="&lt;span style=&quot;color: rgba(0 , 0 , 0 , 0) ; font-family: monospace ; font-size: 0px&quot;&gt;%3CmxGraphModel%3E%3Croot%3E%3CmxCell%20id%3D%220%22%2F%3E%3CmxCell%20id%3D%221%22%20parent%3D%220%22%2F%3E%3CmxCell%20id%3D%222%22%20value%3D%22BN%2CReLU%2CConv(K%3DC)%22%20style%3D%22edgeLabel%3Bhtml%3D1%3Balign%3Dcenter%3BverticalAlign%3Dmiddle%3Bresizable%3D0%3Bpoints%3D%5B%5D%3BfontColor%3Ddefault%3B%22%20vertex%3D%221%22%20connectable%3D%220%22%20parent%3D%221%22%3E%3CmxGeometry%20x%3D%22175%22%20y%3D%22311.66666666666663%22%20as%3D%22geometry%22%2F%3E%3C%2FmxCell%3E%3C%2Froot%3E%3C%2FmxGraphModel%3E&lt;/span&gt;" style="edgeLabel;html=1;align=center;verticalAlign=middle;resizable=0;points=[];fontColor=default;" vertex="1" connectable="0" parent="zm2U4cjtXxkcTZJ3gDTT-19">
                    <mxGeometry x="0.437" relative="1" as="geometry">
                        <mxPoint as="offset"/>
                    </mxGeometry>
                </mxCell>
                <mxCell id="zm2U4cjtXxkcTZJ3gDTT-21" value="(2*C)*(0.5*W)*1" style="shape=cube;whiteSpace=wrap;html=1;boundedLbl=1;backgroundOutline=1;darkOpacity=0.05;darkOpacity2=0.1;fontColor=default;direction=south;size=30;strokeWidth=2;" vertex="1" parent="zm2U4cjtXxkcTZJ3gDTT-1">
                    <mxGeometry x="-217" y="270" width="120" height="70" as="geometry"/>
                </mxCell>
                <mxCell id="zm2U4cjtXxkcTZJ3gDTT-22" value="" style="edgeStyle=none;html=1;fontColor=default;strokeWidth=2;" edge="1" parent="zm2U4cjtXxkcTZJ3gDTT-1" target="zm2U4cjtXxkcTZJ3gDTT-25">
                    <mxGeometry relative="1" as="geometry">
                        <mxPoint x="-157" y="490.0000000000002" as="sourcePoint"/>
                    </mxGeometry>
                </mxCell>
                <mxCell id="zm2U4cjtXxkcTZJ3gDTT-23" value="BN,ReLU,Conv(k=3)" style="edgeLabel;html=1;align=center;verticalAlign=middle;resizable=0;points=[];fontColor=default;" vertex="1" connectable="0" parent="zm2U4cjtXxkcTZJ3gDTT-1">
                    <mxGeometry x="-157" y="399.99666666666667" as="geometry"/>
                </mxCell>
                <mxCell id="zm2U4cjtXxkcTZJ3gDTT-24" value="" style="edgeStyle=none;html=1;fontColor=default;strokeWidth=2;" edge="1" parent="zm2U4cjtXxkcTZJ3gDTT-1" source="zm2U4cjtXxkcTZJ3gDTT-25">
                    <mxGeometry relative="1" as="geometry">
                        <mxPoint x="-157" y="570.0000000000002" as="targetPoint"/>
                    </mxGeometry>
                </mxCell>
                <mxCell id="zm2U4cjtXxkcTZJ3gDTT-25" value="" style="shape=orEllipse;perimeter=ellipsePerimeter;whiteSpace=wrap;html=1;backgroundOutline=1;fontColor=default;" vertex="1" parent="zm2U4cjtXxkcTZJ3gDTT-1">
                    <mxGeometry x="-167" y="525" width="20" height="20" as="geometry"/>
                </mxCell>
                <mxCell id="zm2U4cjtXxkcTZJ3gDTT-26" value="" style="edgeStyle=elbowEdgeStyle;elbow=horizontal;endArrow=classic;html=1;fontColor=default;entryX=1;entryY=0.5;entryDx=0;entryDy=0;strokeWidth=2;" edge="1" parent="zm2U4cjtXxkcTZJ3gDTT-1" target="zm2U4cjtXxkcTZJ3gDTT-25">
                    <mxGeometry width="50" height="50" relative="1" as="geometry">
                        <mxPoint x="-157" y="360" as="sourcePoint"/>
                        <mxPoint x="113" y="535" as="targetPoint"/>
                        <Array as="points">
                            <mxPoint x="-40" y="430"/>
                            <mxPoint x="-7" y="310"/>
                        </Array>
                    </mxGeometry>
                </mxCell>
                <mxCell id="zm2U4cjtXxkcTZJ3gDTT-27" value="(2*C)*(0.5*W)*1" style="shape=cube;whiteSpace=wrap;html=1;boundedLbl=1;backgroundOutline=1;darkOpacity=0.05;darkOpacity2=0.1;fontColor=default;direction=south;size=30;strokeWidth=2;fontSize=12;" vertex="1" parent="zm2U4cjtXxkcTZJ3gDTT-1">
                    <mxGeometry x="-370" y="330" width="120" height="70" as="geometry"/>
                </mxCell>
                <mxCell id="zm2U4cjtXxkcTZJ3gDTT-28" value="(2*C)*(0.5*W)*1" style="shape=cube;whiteSpace=wrap;html=1;boundedLbl=1;backgroundOutline=1;darkOpacity=0.05;darkOpacity2=0.1;fontColor=default;direction=south;size=30;strokeWidth=2;" vertex="1" parent="zm2U4cjtXxkcTZJ3gDTT-1">
                    <mxGeometry x="-217" y="430" width="120" height="70" as="geometry"/>
                </mxCell>
                <mxCell id="zm2U4cjtXxkcTZJ3gDTT-29" value="(2*C)*(0.5*W)*1" style="shape=cube;whiteSpace=wrap;html=1;boundedLbl=1;backgroundOutline=1;darkOpacity=0.05;darkOpacity2=0.1;fontColor=default;direction=south;size=30;strokeWidth=2;" vertex="1" parent="zm2U4cjtXxkcTZJ3gDTT-1">
                    <mxGeometry x="-217" y="570" width="120" height="70" as="geometry"/>
                </mxCell>
                <mxCell id="zm2U4cjtXxkcTZJ3gDTT-30" value="" style="edgeStyle=segmentEdgeStyle;endArrow=classic;html=1;fontColor=default;strokeWidth=2;" edge="1" parent="zm2U4cjtXxkcTZJ3gDTT-1">
                    <mxGeometry width="50" height="50" relative="1" as="geometry">
                        <mxPoint x="-157" y="210" as="sourcePoint"/>
                        <mxPoint x="-310" y="330" as="targetPoint"/>
                        <Array as="points">
                            <mxPoint x="-310" y="210"/>
                        </Array>
                    </mxGeometry>
                </mxCell>
                <mxCell id="zm2U4cjtXxkcTZJ3gDTT-31" value="Conv(k=1)" style="edgeLabel;html=1;align=center;verticalAlign=middle;resizable=0;points=[];fontColor=default;" vertex="1" connectable="0" parent="zm2U4cjtXxkcTZJ3gDTT-30">
                    <mxGeometry x="0.0641" y="-1" relative="1" as="geometry">
                        <mxPoint x="-8" y="61" as="offset"/>
                    </mxGeometry>
                </mxCell>
                <mxCell id="zm2U4cjtXxkcTZJ3gDTT-32" value="" style="edgeStyle=elbowEdgeStyle;elbow=horizontal;endArrow=classic;html=1;fontColor=default;exitX=0;exitY=0;exitDx=70;exitDy=85;exitPerimeter=0;strokeWidth=2;" edge="1" parent="zm2U4cjtXxkcTZJ3gDTT-1">
                    <mxGeometry width="50" height="50" relative="1" as="geometry">
                        <mxPoint x="-309" y="400.0000000000002" as="sourcePoint"/>
                        <mxPoint x="-167" y="535.0000000000002" as="targetPoint"/>
                        <Array as="points">
                            <mxPoint x="-309" y="440"/>
                        </Array>
                    </mxGeometry>
                </mxCell>
            </root>
        </mxGraphModel>
    </diagram>
</mxfile>